<svg xmlns="http://www.w3.org/2000/svg" xmlns:xlink="http://www.w3.org/1999/xlink" width="1022.753" height="784.977" viewBox="0 0 1022.753 784.977">
  <defs>
    <linearGradient id="linear-gradient" x1="0.638" y1="0.024" x2="0.235" y2="1" gradientUnits="objectBoundingBox">
      <stop offset="0" stop-color="#11d7f6"/>
      <stop offset="1" stop-color="#002afe"/>
    </linearGradient>
  </defs>
  <path id="background" d="M175.73,115.43c-5.48,6.65-7.59,16-9.95,24.79-19,70.84-65.82,127.82-119.14,168.52C24.06,325.98-3.43,349.1,1.51,380.01c2.66,16.6,14.33,28.82,23,42.34C42.7,450.66,48.6,489.14,39.93,523.03c-9.86,38.56-37.42,74.54-28.89,113.53,5.26,24,23.12,41.08,40.29,55.76q40.18,34.33,82.92,64.32c19.1,13.4,39.42,26.44,61.68,28.14,19.6,1.5,38.8-5.95,57.41-13.3,16.26-6.43,32.93-13.12,46.06-26,8.57-8.41,15.4-19.26,24.92-26.14,22.36-16.16,51.08-5.92,76.72,1,60.5,16.24,125.25,10.31,182.82-16.74,88.31-41.5,155.62-128.65,242-175.41C863,508.08,903.4,495.6,937.79,469.7a209.091,209.091,0,0,0,49.2-53.24c26-40.11,40.06-91.25,36-141.31s-26.81-98.3-62.54-126.56c-38.25-30.25-86.56-35.9-130.08-54.06-44.94-18.76-84.92-51-129.43-71.13a264.67,264.67,0,0,0-228.27,5.09c-48.44,24.5-97.54,81.66-151.49,86C282.74,117.49,205.75,79.01,175.73,115.43Z" transform="translate(-0.928 0.002)" opacity="0.5" fill="url(#linear-gradient)"/>
</svg>
